<svg width="28" height="28" viewBox="0 0 28 28" fill="none" xmlns="http://www.w3.org/2000/svg">
<g filter="url(#filter0_d_2775_5992)">
<path d="M3 12.0018C3 7.75832 3 5.63657 4.31829 4.31829C5.63657 3 7.75832 3 12.0018 3H16.2931C20.5366 3 22.6584 3 23.9767 4.31829C25.295 5.63657 25.295 7.75832 25.295 12.0018V16.6293C25.295 20.8728 25.295 22.9946 23.9767 24.3129C22.6584 25.6312 20.5366 25.6312 16.2931 25.6312H12.0018C7.75832 25.6312 5.63657 25.6312 4.31829 24.3129C3 22.9946 3 20.8728 3 16.6293V12.0018Z" fill="#45BD5F"/>
<path d="M12.002 3.28125H16.293C18.4226 3.28125 19.9918 3.28169 21.1943 3.44336C22.3888 3.60395 23.1792 3.91942 23.7773 4.51758C24.3755 5.11574 24.691 5.90612 24.8516 7.10059C25.0132 8.30314 25.0137 9.87227 25.0137 12.002V16.6289C25.0137 18.7584 25.0132 20.3278 24.8516 21.5303C24.691 22.7247 24.3755 23.5161 23.7773 24.1143C23.1792 24.7122 22.3886 25.0269 21.1943 25.1875C19.9918 25.3492 18.4227 25.3496 16.293 25.3496H12.002C9.87225 25.3496 8.30315 25.3492 7.10059 25.1875C5.90635 25.0269 5.1157 24.7122 4.51758 24.1143C3.91941 23.5161 3.60395 22.7247 3.44336 21.5303C3.28172 20.3278 3.28125 18.7584 3.28125 16.6289V12.002C3.28125 9.87227 3.28168 8.30314 3.44336 7.10059C3.60395 5.90612 3.91941 5.11574 4.51758 4.51758C5.11574 3.91941 5.90612 3.60395 7.10059 3.44336C8.30314 3.28168 9.87227 3.28125 12.002 3.28125Z" stroke="black" stroke-opacity="0.1" stroke-width="0.562614"/>
<path d="M12.4693 10.5859L13.9296 14.5324L17.8761 15.9927L13.9296 17.4531L12.4693 21.3996L11.009 17.4531L7.0625 15.9927L11.009 14.5324L12.4693 10.5859Z" fill="white"/>
<path d="M17.441 7.23242L18.4632 9.99496L21.2258 11.0172L18.4632 12.0394L17.441 14.802L16.4188 12.0394L13.6562 11.0172L16.4188 9.99496L17.441 7.23242Z" fill="white"/>
</g>
<defs>
<filter id="filter0_d_2775_5992" x="0.749545" y="0.749545" width="26.7978" height="27.1318" filterUnits="userSpaceOnUse" color-interpolation-filters="sRGB">
<feFlood flood-opacity="0" result="BackgroundImageFix"/>
<feColorMatrix in="SourceAlpha" type="matrix" values="0 0 0 0 0 0 0 0 0 0 0 0 0 0 0 0 0 0 127 0" result="hardAlpha"/>
<feOffset/>
<feGaussianBlur stdDeviation="1.12523"/>
<feComposite in2="hardAlpha" operator="out"/>
<feColorMatrix type="matrix" values="0 0 0 0 0.466667 0 0 0 0 0.466667 0 0 0 0 0.466667 0 0 0 0.2 0"/>
<feBlend mode="normal" in2="BackgroundImageFix" result="effect1_dropShadow_2775_5992"/>
<feBlend mode="normal" in="SourceGraphic" in2="effect1_dropShadow_2775_5992" result="shape"/>
</filter>
</defs>
</svg>
